<svg width="24" height="34" viewBox="0 0 24 34" fill="none" xmlns="http://www.w3.org/2000/svg">
<path d="M11.988 32.4241L11.988 32.4242C11.7731 32.6718 11.4055 32.6721 11.1904 32.4242L10.8127 32.7519L11.1904 32.4241C10.9766 32.1778 8.29053 29.0591 5.66083 24.9866C4.346 22.9503 3.05154 20.6852 2.08717 18.4287C1.12028 16.1663 0.5 13.9463 0.5 11.9911C0.5 5.63916 5.49095 0.5 11.5892 0.5C17.6874 0.5 22.6783 5.63915 22.6784 11.9911C22.6784 13.9463 22.0581 16.1663 21.0912 18.4287C20.1268 20.6852 18.8324 22.9503 17.5175 24.9866C14.8878 29.0591 12.2018 32.1778 11.988 32.4241ZM5.25844 11.9911C5.25844 15.5777 8.08198 18.5242 11.5892 18.5242C15.0963 18.5242 17.9199 15.5778 17.9199 11.9912C17.9199 8.40463 15.0963 5.45813 11.5892 5.45813C8.08205 5.45813 5.25844 8.40455 5.25844 11.9911Z" fill="#00BBFF" stroke="white"/>
</svg>
